<svg xmlns="http://www.w3.org/2000/svg" viewBox="0 0 66.49 66.75"><defs><style>.cls-1{fill:#207499;}.cls-2{fill:#54b99f;}.cls-3,.cls-4,.cls-5{fill:none;stroke:#f3fafc;stroke-miterlimit:10;}.cls-3{stroke-width:0.35px;}.cls-4{stroke-width:0.61px;}.cls-5{stroke-width:0.52px;}</style></defs><g id="Camada_2" data-name="Camada 2"><g id="Camada_9" data-name="Camada 9"><path class="cls-1" d="M58.68,53.8a.52.52,0,0,1,.41-.83.46.46,0,0,1,.44.28,32.75,32.75,0,0,0,6.58-19.73c0-.91,0-1.81-.11-2.71a.48.48,0,0,1-.34.13.59.59,0,0,1,0-1.16.49.49,0,0,1,.25.06A32.88,32.88,0,0,0,33.56.65a.51.51,0,0,1-.45.73h-.24a.51.51,0,0,1-.46-.72A32.9,32.9,0,0,0,2.43,22a.47.47,0,0,1,.32.39s0,0,0,0a.53.53,0,0,1-.42.81.45.45,0,0,1-.3-.1H2A32.91,32.91,0,0,0,12.27,58.83a.49.49,0,0,1,.33-.12.51.51,0,0,1,.48.66.34.34,0,0,1,0,.1,32.77,32.77,0,0,0,14.44,6.42.47.47,0,0,1,.49-.41.57.57,0,0,1,.18,0h0a.5.5,0,0,1,.5.57,33.79,33.79,0,0,0,4.53.31A32.79,32.79,0,0,0,58.89,54.07.51.51,0,0,1,58.68,53.8Zm.47-24a.59.59,0,1,1-.49.55A.49.49,0,0,1,59.15,29.78ZM14.78,23.17a.52.52,0,0,1,0-1A.52.52,0,0,1,14.78,23.17Zm4,27a.48.48,0,0,1-.24.06.63.63,0,0,1,0-1.23.46.46,0,0,1,.45.28A.53.53,0,0,1,18.78,50.13Zm5.89-8.36a.49.49,0,0,1-.33-.12.52.52,0,0,1,.11-1h.16a.47.47,0,0,1,.46.3A.52.52,0,0,1,24.67,41.77Zm.25-13.25a.47.47,0,0,1-.37.17.48.48,0,0,1-.49-.39.52.52,0,0,1,.42-.81.56.56,0,0,1,.23.05A.52.52,0,0,1,24.92,28.52Zm3.71,30.92a.49.49,0,0,1-.49.5.52.52,0,0,1-.48-.7.49.49,0,0,1,.5-.49A.5.5,0,0,1,28.63,59.44Zm3-1.66a.47.47,0,0,1-.46-.3.53.53,0,0,1,.39-.86.46.46,0,0,1,.46.31A.52.52,0,0,1,31.65,57.78Zm1.43-48a.47.47,0,0,1-.41-.21.53.53,0,0,1,.3-.94.48.48,0,0,1,.42.21A.53.53,0,0,1,33.08,9.79Zm5.06,9.77a.58.58,0,0,1-.19,0,.51.51,0,0,1-.46-.72.48.48,0,0,1,.49-.44.46.46,0,0,1,.39.18A.52.52,0,0,1,38.14,19.56Zm4.55,34.57h-.2a.52.52,0,0,1,0-1h.2A.52.52,0,0,1,42.69,54.13ZM47.2,26.49a.49.49,0,0,1-.35-.14.54.54,0,0,1-.11-.86.5.5,0,0,1,.8.09A.53.53,0,0,1,47.2,26.49Z"/><path class="cls-2" d="M65.22,26.65a12.53,12.53,0,0,0-1.81-5.77c-.47-.88-1-1.72-1.45-2.62A22.3,22.3,0,0,0,61,16a.2.2,0,0,1-.08,0,3.94,3.94,0,0,1-1.34-1.55,16.66,16.66,0,0,0-1.46-2.09,40.66,40.66,0,0,0-3.4-3.55,2.19,2.19,0,0,1-1.53-1,9,9,0,0,1-1.38-1A23,23,0,0,0,49,5.19a33.92,33.92,0,0,0-3.48-1.7,30.4,30.4,0,0,0-3.44-1.43.49.49,0,0,1-.25-.16c-1.13-.17-2.2-.58-3.34-.69A7.67,7.67,0,0,1,36.69.94L36.22.78H33.54a.49.49,0,0,1-.5.55H33V8.67h.11a.51.51,0,0,1,.48.66c1.3,0,2.6,0,3.9,0a.48.48,0,0,1,.49.43A.53.53,0,0,1,38,10c0,2.84.07,5.68.08,8.52a.5.5,0,0,1,.38.57c2.59,0,5.18,0,7.77,0a.53.53,0,0,1,.78.3.58.58,0,0,1,0,.39c0,1.88,0,3.76.05,5.64h.06a.49.49,0,0,1,.48.62h8.6a10.77,10.77,0,0,1,2.78.1.52.52,0,0,1,.1,1c0,.9,0,1.8.05,2.71a.48.48,0,0,1,.47.51H65.2a.5.5,0,0,1,.23-.49V27.05A.46.46,0,0,1,65.22,26.65Z"/><path class="cls-2" d="M24.12,28.36A.52.52,0,0,1,24,28H15.26a.52.52,0,0,1-.34-.9V23.19a.41.41,0,0,1-.19,0,.51.51,0,0,1-.48-.68H2.76a.51.51,0,0,1-.47.72.46.46,0,0,1-.21,0c-.16.38-.34.76-.52,1.13a.49.49,0,0,1,.06.25,7.18,7.18,0,0,1-.77,2.55C.79,28,.7,28.77.58,29.57a.42.42,0,0,1-.28.36V37a.58.58,0,0,1,.09.44.55.55,0,0,1,.15.64.67.67,0,0,1,0,.37.46.46,0,0,1,.13.34c0,.36,0,.73,0,1.1a.51.51,0,0,1,.24.4,20.19,20.19,0,0,0,1.2,4.23,22.79,22.79,0,0,0,1.08,2.82.78.78,0,0,1,.14.2c0,.11.09.21.13.31s.17.28.26.41a.58.58,0,0,1,.09.26c.38.69.84,1.34,1.25,2,.58.93,1.19,1.84,1.85,2.71,1.42,1.87,3.09,3.56,4.64,5.33h1q0-.37,0-.75c0-.81,0-1.61,0-2.42-.06-1.78-.19-3.55-.2-5.33a.53.53,0,0,1,.91-.34l.09,0a24.4,24.4,0,0,1,4.6-.19.5.5,0,0,1,.49-.62h.1c0-2.38,0-4.77,0-7.15a.51.51,0,0,1,.67-.48.59.59,0,0,1,.2,0h4.59a.5.5,0,0,1,.5-.57h0v-12A.46.46,0,0,1,24.12,28.36Z"/><path class="cls-2" d="M58.59,53.58H43.06a.49.49,0,0,1-.49.55h0c0,.82,0,1.65,0,2.47a.47.47,0,0,1-.41.49.46.46,0,0,1-.34.13H32.24a.49.49,0,0,1-.49.59h0v1.25a.52.52,0,0,1-.95.28h-2.1a.5.5,0,0,1-.48.63h-.08v5.54a.46.46,0,0,1,.42.27c.44.1.86.28,1.31.35.7.1,1.44.08,2.14.12,1.48.07,3,0,4.44,0,.71-.07,1.42-.2,2.13-.28a15.87,15.87,0,0,0,2.83-.53c.91-.26,1.78-.6,2.68-.88.56-.18,1.13-.41,1.71-.58a.52.52,0,0,1,.24-.25,38.87,38.87,0,0,0,5.21-2.69.51.51,0,0,1,.13-.18c1.36-1.2,2.86-2.26,4.27-3.4a11,11,0,0,0,1.89-1.84,3.52,3.52,0,0,1,.92-1,.48.48,0,0,1,.37-.31.45.45,0,0,1,.08-.26h0A.5.5,0,0,1,58.59,53.58Z"/><g id="CONTORNO"><circle class="cls-3" cx="37.97" cy="19.02" r="0.61"/><circle class="cls-3" cx="2.27" cy="22.63" r="0.61"/><circle class="cls-3" cx="47.17" cy="25.93" r="0.61"/><circle class="cls-3" cx="24.61" cy="28.09" r="0.61"/><circle class="cls-3" cx="24.61" cy="41.19" r="0.61"/><circle class="cls-3" cx="14.79" cy="22.63" r="0.61"/><circle class="cls-3" cx="28.12" cy="59.37" r="0.61"/><circle class="cls-3" cx="59.16" cy="53.58" r="0.61"/><circle class="cls-3" cx="28.12" cy="65.97" r="0.61"/><circle class="cls-3" cx="12.5" cy="59.37" r="0.61"/><circle class="cls-3" cx="18.56" cy="49.55" r="0.61"/><circle class="cls-3" cx="31.62" cy="57.21" r="0.61"/><circle class="cls-3" cx="65.71" cy="30.36" r="0.61"/><circle class="cls-3" cx="59.16" cy="30.36" r="0.61"/><circle class="cls-3" cx="42.53" cy="53.58" r="0.61"/><circle class="cls-3" cx="32.98" cy="0.78" r="0.61"/><circle class="cls-3" cx="33.02" cy="9.2" r="0.61"/><line class="cls-4" x1="2.88" y1="22.63" x2="14.18" y2="22.63"/><line class="cls-4" x1="14.56" y1="28.09" x2="24" y2="28.09"/><line class="cls-4" x1="18.35" y1="41.19" x2="23.96" y2="41.19"/><line class="cls-4" x1="12.5" y1="49.55" x2="18.11" y2="49.55"/><line class="cls-4" x1="14.79" y1="23.24" x2="14.79" y2="28.45"/><line class="cls-4" x1="24.6" y1="28.7" x2="24.61" y2="40.58"/><line class="cls-4" x1="18.56" y1="40.82" x2="18.56" y2="48.94"/><line class="cls-4" x1="42.53" y1="54.06" x2="42.53" y2="57.57"/><line class="cls-4" x1="31.61" y1="57.82" x2="31.61" y2="59.37"/><line class="cls-4" x1="28.12" y1="59.98" x2="28.12" y2="65.36"/><line class="cls-4" x1="42.53" y1="57.21" x2="32.23" y2="57.21"/><line class="cls-4" x1="58.55" y1="53.58" x2="43.14" y2="53.58"/><line class="cls-4" x1="59.16" y1="25.93" x2="47.78" y2="25.93"/><line class="cls-4" x1="47.17" y1="19.02" x2="38.58" y2="19.02"/><line class="cls-4" x1="37.97" y1="9.2" x2="33.59" y2="9.2"/><line class="cls-4" x1="32.98" y1="8.59" x2="32.98" y2="1.39"/><line class="cls-4" x1="37.97" y1="18.31" x2="37.97" y2="8.84"/><line class="cls-4" x1="47.17" y1="25.32" x2="47.17" y2="18.66"/><line class="cls-5" x1="59.16" y1="29.75" x2="59.16" y2="25.58"/><line class="cls-4" x1="65.1" y1="30.36" x2="59.87" y2="30.36"/><line class="cls-4" x1="31.97" y1="59.4" x2="28.65" y2="59.4"/><line class="cls-4" x1="12.51" y1="49.19" x2="12.51" y2="58.66"/><path class="cls-4" d="M28.65,66.14c14.15,1.31,22.63-3.39,30.22-12.09"/><path class="cls-4" d="M13.05,59.64c4.36,3.88,12.31,6.17,14.48,6.33"/><path class="cls-4" d="M2.08,23.24c-4.73,12.86.45,27.5,10,35.66"/><path class="cls-4" d="M32.37.78C20.15.78,6.71,9.5,2.48,22"/><path class="cls-4" d="M65.81,31a32.29,32.29,0,0,1-6.17,22.24"/><path class="cls-4" d="M33.59.78c17.6,0,31.31,15.4,32.12,29"/></g></g></g></svg>